<mxfile host="app.diagrams.net" modified="2024-05-06T22:03:38.449Z" agent="Mozilla/5.0 (Windows NT 10.0; Win64; x64) AppleWebKit/537.36 (KHTML, like Gecko) Chrome/124.0.0.0 Safari/537.36" etag="fbamwR4mN_JrU-_ZFsWc" version="24.3.1" type="device" pages="4">
  <diagram name="PÃ¡gina-1" id="QrLzucSEayrVr3oGLvwX">
    <mxGraphModel dx="794" dy="454" grid="1" gridSize="10" guides="1" tooltips="1" connect="1" arrows="1" fold="1" page="1" pageScale="1" pageWidth="1920" pageHeight="1200" math="0" shadow="0">
      <root>
        <mxCell id="0" />
        <mxCell id="1" parent="0" />
        <mxCell id="v9rKTqqRx91zz462ox4N-6" value="" style="rounded=0;orthogonalLoop=1;jettySize=auto;html=1;endArrow=block;endFill=0;exitX=0.5;exitY=0.5;exitDx=0;exitDy=0;exitPerimeter=0;" parent="1" source="v9rKTqqRx91zz462ox4N-1" target="v9rKTqqRx91zz462ox4N-5" edge="1">
          <mxGeometry relative="1" as="geometry" />
        </mxCell>
        <mxCell id="v9rKTqqRx91zz462ox4N-1" value="Estudiantes de&lt;br&gt;pregrado" style="shape=umlActor;verticalLabelPosition=bottom;verticalAlign=top;html=1;outlineConnect=0;" parent="1" vertex="1">
          <mxGeometry x="90" y="40" width="30" height="60" as="geometry" />
        </mxCell>
        <mxCell id="v9rKTqqRx91zz462ox4N-27" style="edgeStyle=none;rounded=0;orthogonalLoop=1;jettySize=auto;html=1;exitX=0.75;exitY=0.1;exitDx=0;exitDy=0;exitPerimeter=0;entryX=0;entryY=0.5;entryDx=0;entryDy=0;strokeColor=default;align=center;verticalAlign=middle;fontFamily=Helvetica;fontSize=11;fontColor=default;labelBackgroundColor=default;endArrow=none;endFill=0;" parent="1" source="v9rKTqqRx91zz462ox4N-5" target="v9rKTqqRx91zz462ox4N-20" edge="1">
          <mxGeometry relative="1" as="geometry" />
        </mxCell>
        <mxCell id="v9rKTqqRx91zz462ox4N-28" style="edgeStyle=none;rounded=0;orthogonalLoop=1;jettySize=auto;html=1;exitX=1;exitY=0.3333333333333333;exitDx=0;exitDy=0;exitPerimeter=0;entryX=0;entryY=0.5;entryDx=0;entryDy=0;strokeColor=default;align=center;verticalAlign=middle;fontFamily=Helvetica;fontSize=11;fontColor=default;labelBackgroundColor=default;endArrow=none;endFill=0;" parent="1" source="v9rKTqqRx91zz462ox4N-5" target="v9rKTqqRx91zz462ox4N-23" edge="1">
          <mxGeometry relative="1" as="geometry" />
        </mxCell>
        <mxCell id="v9rKTqqRx91zz462ox4N-5" value="Esstudiante" style="shape=umlActor;verticalLabelPosition=bottom;verticalAlign=top;html=1;outlineConnect=0;" parent="1" vertex="1">
          <mxGeometry x="220" y="140" width="30" height="60" as="geometry" />
        </mxCell>
        <mxCell id="v9rKTqqRx91zz462ox4N-10" style="edgeStyle=none;rounded=0;orthogonalLoop=1;jettySize=auto;html=1;strokeColor=default;align=center;verticalAlign=middle;fontFamily=Helvetica;fontSize=11;fontColor=default;labelBackgroundColor=default;endArrow=block;endFill=0;exitX=0.5;exitY=0.5;exitDx=0;exitDy=0;exitPerimeter=0;" parent="1" source="v9rKTqqRx91zz462ox4N-8" target="v9rKTqqRx91zz462ox4N-5" edge="1">
          <mxGeometry relative="1" as="geometry" />
        </mxCell>
        <mxCell id="v9rKTqqRx91zz462ox4N-8" value="Estudiantes de&lt;br&gt;postgrado" style="shape=umlActor;verticalLabelPosition=bottom;verticalAlign=top;html=1;outlineConnect=0;" parent="1" vertex="1">
          <mxGeometry x="90" y="200" width="30" height="60" as="geometry" />
        </mxCell>
        <mxCell id="v9rKTqqRx91zz462ox4N-15" style="edgeStyle=none;rounded=0;orthogonalLoop=1;jettySize=auto;html=1;exitX=0.5;exitY=0.5;exitDx=0;exitDy=0;exitPerimeter=0;strokeColor=default;align=center;verticalAlign=middle;fontFamily=Helvetica;fontSize=11;fontColor=default;labelBackgroundColor=default;endArrow=block;endFill=0;" parent="1" source="v9rKTqqRx91zz462ox4N-12" target="v9rKTqqRx91zz462ox4N-14" edge="1">
          <mxGeometry relative="1" as="geometry" />
        </mxCell>
        <mxCell id="v9rKTqqRx91zz462ox4N-12" value="Profesor" style="shape=umlActor;verticalLabelPosition=bottom;verticalAlign=top;html=1;outlineConnect=0;" parent="1" vertex="1">
          <mxGeometry x="90" y="350" width="30" height="60" as="geometry" />
        </mxCell>
        <mxCell id="v9rKTqqRx91zz462ox4N-16" style="edgeStyle=none;rounded=0;orthogonalLoop=1;jettySize=auto;html=1;exitX=0.5;exitY=0.5;exitDx=0;exitDy=0;exitPerimeter=0;strokeColor=default;align=center;verticalAlign=middle;fontFamily=Helvetica;fontSize=11;fontColor=default;labelBackgroundColor=default;endArrow=block;endFill=0;" parent="1" source="v9rKTqqRx91zz462ox4N-13" target="v9rKTqqRx91zz462ox4N-14" edge="1">
          <mxGeometry relative="1" as="geometry" />
        </mxCell>
        <mxCell id="v9rKTqqRx91zz462ox4N-13" value="Administrador&lt;div&gt;academico&lt;/div&gt;" style="shape=umlActor;verticalLabelPosition=bottom;verticalAlign=top;html=1;outlineConnect=0;" parent="1" vertex="1">
          <mxGeometry x="90" y="520" width="30" height="60" as="geometry" />
        </mxCell>
        <mxCell id="3ikKp4cBxxbYY34oaQvM-1" style="rounded=0;orthogonalLoop=1;jettySize=auto;html=1;exitX=0.5;exitY=0;exitDx=0;exitDy=0;exitPerimeter=0;entryX=0;entryY=0.5;entryDx=0;entryDy=0;endArrow=none;endFill=0;" edge="1" parent="1" source="v9rKTqqRx91zz462ox4N-14" target="v9rKTqqRx91zz462ox4N-24">
          <mxGeometry relative="1" as="geometry" />
        </mxCell>
        <mxCell id="3ikKp4cBxxbYY34oaQvM-3" style="edgeStyle=none;rounded=0;orthogonalLoop=1;jettySize=auto;html=1;exitX=0.75;exitY=0.1;exitDx=0;exitDy=0;exitPerimeter=0;strokeColor=default;align=center;verticalAlign=middle;fontFamily=Helvetica;fontSize=11;fontColor=default;labelBackgroundColor=default;endArrow=none;endFill=0;" edge="1" parent="1" source="v9rKTqqRx91zz462ox4N-14" target="v9rKTqqRx91zz462ox4N-21">
          <mxGeometry relative="1" as="geometry" />
        </mxCell>
        <mxCell id="3ikKp4cBxxbYY34oaQvM-4" style="edgeStyle=none;rounded=0;orthogonalLoop=1;jettySize=auto;html=1;exitX=1;exitY=0.3333333333333333;exitDx=0;exitDy=0;exitPerimeter=0;entryX=0;entryY=0;entryDx=0;entryDy=0;strokeColor=default;align=center;verticalAlign=middle;fontFamily=Helvetica;fontSize=11;fontColor=default;labelBackgroundColor=default;endArrow=none;endFill=0;" edge="1" parent="1" source="v9rKTqqRx91zz462ox4N-14" target="v9rKTqqRx91zz462ox4N-22">
          <mxGeometry relative="1" as="geometry" />
        </mxCell>
        <mxCell id="v9rKTqqRx91zz462ox4N-14" value="Personal&lt;div&gt;academico&lt;/div&gt;" style="shape=umlActor;verticalLabelPosition=bottom;verticalAlign=top;html=1;outlineConnect=0;" parent="1" vertex="1">
          <mxGeometry x="220" y="460" width="30" height="60" as="geometry" />
        </mxCell>
        <mxCell id="3ikKp4cBxxbYY34oaQvM-5" style="edgeStyle=none;rounded=0;orthogonalLoop=1;jettySize=auto;html=1;exitX=1;exitY=0.3333333333333333;exitDx=0;exitDy=0;exitPerimeter=0;entryX=0;entryY=0.5;entryDx=0;entryDy=0;strokeColor=default;align=center;verticalAlign=middle;fontFamily=Helvetica;fontSize=11;fontColor=default;labelBackgroundColor=default;endArrow=none;endFill=0;" edge="1" parent="1" source="v9rKTqqRx91zz462ox4N-18" target="v9rKTqqRx91zz462ox4N-25">
          <mxGeometry relative="1" as="geometry" />
        </mxCell>
        <mxCell id="v9rKTqqRx91zz462ox4N-18" value="Profesor" style="shape=umlActor;verticalLabelPosition=bottom;verticalAlign=top;html=1;outlineConnect=0;" parent="1" vertex="1">
          <mxGeometry x="90" y="680" width="30" height="60" as="geometry" />
        </mxCell>
        <mxCell id="3ikKp4cBxxbYY34oaQvM-6" style="edgeStyle=none;rounded=0;orthogonalLoop=1;jettySize=auto;html=1;exitX=1;exitY=0.3333333333333333;exitDx=0;exitDy=0;exitPerimeter=0;entryX=0;entryY=0.5;entryDx=0;entryDy=0;strokeColor=default;align=center;verticalAlign=middle;fontFamily=Helvetica;fontSize=11;fontColor=default;labelBackgroundColor=default;endArrow=none;endFill=0;" edge="1" parent="1" source="v9rKTqqRx91zz462ox4N-19" target="v9rKTqqRx91zz462ox4N-26">
          <mxGeometry relative="1" as="geometry" />
        </mxCell>
        <mxCell id="v9rKTqqRx91zz462ox4N-19" value="Profesor" style="shape=umlActor;verticalLabelPosition=bottom;verticalAlign=top;html=1;outlineConnect=0;" parent="1" vertex="1">
          <mxGeometry x="90" y="840" width="30" height="60" as="geometry" />
        </mxCell>
        <mxCell id="3ikKp4cBxxbYY34oaQvM-12" style="edgeStyle=none;rounded=0;orthogonalLoop=1;jettySize=auto;html=1;exitX=1;exitY=0.5;exitDx=0;exitDy=0;strokeColor=default;align=center;verticalAlign=middle;fontFamily=Helvetica;fontSize=11;fontColor=default;labelBackgroundColor=default;endArrow=block;endFill=1;dashed=1;" edge="1" parent="1" source="v9rKTqqRx91zz462ox4N-20" target="3ikKp4cBxxbYY34oaQvM-8">
          <mxGeometry relative="1" as="geometry" />
        </mxCell>
        <mxCell id="v9rKTqqRx91zz462ox4N-20" value="&lt;font style=&quot;font-size: 13px;&quot;&gt;Inscribirse en&lt;/font&gt;&lt;div style=&quot;font-size: 13px;&quot;&gt;&lt;font style=&quot;font-size: 13px;&quot;&gt;cursos&lt;/font&gt;&lt;/div&gt;" style="ellipse;whiteSpace=wrap;html=1;fontFamily=Helvetica;fontSize=11;fontColor=default;labelBackgroundColor=default;" parent="1" vertex="1">
          <mxGeometry x="340" y="80" width="100" height="70" as="geometry" />
        </mxCell>
        <mxCell id="v9rKTqqRx91zz462ox4N-21" value="&lt;span style=&quot;font-size: 13px;&quot;&gt;Consultar&lt;/span&gt;&lt;div&gt;&lt;span style=&quot;font-size: 13px;&quot;&gt;horarios&lt;/span&gt;&lt;/div&gt;" style="ellipse;whiteSpace=wrap;html=1;fontFamily=Helvetica;fontSize=11;fontColor=default;labelBackgroundColor=default;" parent="1" vertex="1">
          <mxGeometry x="340" y="440" width="100" height="70" as="geometry" />
        </mxCell>
        <mxCell id="v9rKTqqRx91zz462ox4N-22" value="&lt;span style=&quot;font-size: 13px;&quot;&gt;Gestionar&lt;/span&gt;&lt;div&gt;&lt;span style=&quot;font-size: 13px;&quot;&gt;Acceso&lt;/span&gt;&lt;/div&gt;" style="ellipse;whiteSpace=wrap;html=1;fontFamily=Helvetica;fontSize=11;fontColor=default;labelBackgroundColor=default;" parent="1" vertex="1">
          <mxGeometry x="340" y="565" width="100" height="70" as="geometry" />
        </mxCell>
        <mxCell id="v9rKTqqRx91zz462ox4N-23" value="&lt;span style=&quot;font-size: 13px;&quot;&gt;Revisar&amp;nbsp;&lt;/span&gt;&lt;div&gt;&lt;span style=&quot;font-size: 13px;&quot;&gt;calificaciones&lt;/span&gt;&lt;/div&gt;" style="ellipse;whiteSpace=wrap;html=1;fontFamily=Helvetica;fontSize=11;fontColor=default;labelBackgroundColor=default;" parent="1" vertex="1">
          <mxGeometry x="340" y="195" width="100" height="70" as="geometry" />
        </mxCell>
        <mxCell id="v9rKTqqRx91zz462ox4N-24" value="&lt;span style=&quot;font-size: 13px;&quot;&gt;Gestionar&amp;nbsp;&lt;/span&gt;&lt;div&gt;&lt;span style=&quot;font-size: 13px;&quot;&gt;calificaciones&lt;/span&gt;&lt;/div&gt;" style="ellipse;whiteSpace=wrap;html=1;fontFamily=Helvetica;fontSize=11;fontColor=default;labelBackgroundColor=default;" parent="1" vertex="1">
          <mxGeometry x="340" y="320" width="100" height="70" as="geometry" />
        </mxCell>
        <mxCell id="3ikKp4cBxxbYY34oaQvM-18" style="edgeStyle=none;rounded=0;orthogonalLoop=1;jettySize=auto;html=1;exitX=1;exitY=0.5;exitDx=0;exitDy=0;dashed=1;strokeColor=default;align=center;verticalAlign=middle;fontFamily=Helvetica;fontSize=11;fontColor=default;labelBackgroundColor=default;endArrow=block;endFill=1;" edge="1" parent="1" source="v9rKTqqRx91zz462ox4N-25" target="3ikKp4cBxxbYY34oaQvM-17">
          <mxGeometry relative="1" as="geometry" />
        </mxCell>
        <mxCell id="v9rKTqqRx91zz462ox4N-25" value="&lt;span style=&quot;font-size: 13px;&quot;&gt;Reservar recursos&lt;/span&gt;&lt;div&gt;&lt;span style=&quot;font-size: 13px;&quot;&gt;de la biblioteca&lt;/span&gt;&lt;/div&gt;" style="ellipse;whiteSpace=wrap;html=1;fontFamily=Helvetica;fontSize=11;fontColor=default;labelBackgroundColor=default;" parent="1" vertex="1">
          <mxGeometry x="340" y="690" width="140" height="70" as="geometry" />
        </mxCell>
        <mxCell id="3ikKp4cBxxbYY34oaQvM-19" style="edgeStyle=none;rounded=0;orthogonalLoop=1;jettySize=auto;html=1;exitX=1;exitY=0.5;exitDx=0;exitDy=0;entryX=0;entryY=0.5;entryDx=0;entryDy=0;dashed=1;strokeColor=default;align=center;verticalAlign=middle;fontFamily=Helvetica;fontSize=11;fontColor=default;labelBackgroundColor=default;endArrow=block;endFill=1;" edge="1" parent="1" source="v9rKTqqRx91zz462ox4N-26" target="3ikKp4cBxxbYY34oaQvM-16">
          <mxGeometry relative="1" as="geometry" />
        </mxCell>
        <mxCell id="v9rKTqqRx91zz462ox4N-26" value="&lt;span style=&quot;font-size: 13px;&quot;&gt;Administrar&lt;/span&gt;&lt;div&gt;&lt;span style=&quot;font-size: 13px;&quot;&gt;red&lt;/span&gt;&lt;/div&gt;" style="ellipse;whiteSpace=wrap;html=1;fontFamily=Helvetica;fontSize=11;fontColor=default;labelBackgroundColor=default;" parent="1" vertex="1">
          <mxGeometry x="340" y="840" width="100" height="70" as="geometry" />
        </mxCell>
        <mxCell id="3ikKp4cBxxbYY34oaQvM-27" style="edgeStyle=none;rounded=0;orthogonalLoop=1;jettySize=auto;html=1;exitX=0;exitY=0.5;exitDx=0;exitDy=0;entryX=1;entryY=0.5;entryDx=0;entryDy=0;dashed=1;strokeColor=default;align=center;verticalAlign=middle;fontFamily=Helvetica;fontSize=11;fontColor=default;labelBackgroundColor=default;endArrow=block;endFill=1;" edge="1" parent="1" source="3ikKp4cBxxbYY34oaQvM-7" target="v9rKTqqRx91zz462ox4N-21">
          <mxGeometry relative="1" as="geometry" />
        </mxCell>
        <mxCell id="3ikKp4cBxxbYY34oaQvM-7" value="&lt;span style=&quot;font-size: 13px;&quot;&gt;Reservar espacios&lt;/span&gt;&lt;div&gt;&lt;span style=&quot;font-size: 13px;&quot;&gt;de estudio en&lt;/span&gt;&lt;/div&gt;&lt;div&gt;&lt;span style=&quot;font-size: 13px;&quot;&gt;la biblioteca&lt;/span&gt;&lt;/div&gt;" style="ellipse;whiteSpace=wrap;html=1;fontFamily=Helvetica;fontSize=11;fontColor=default;labelBackgroundColor=default;" vertex="1" parent="1">
          <mxGeometry x="570" y="435" width="140" height="80" as="geometry" />
        </mxCell>
        <mxCell id="3ikKp4cBxxbYY34oaQvM-21" value="" style="edgeStyle=none;rounded=0;orthogonalLoop=1;jettySize=auto;html=1;dashed=1;strokeColor=default;align=center;verticalAlign=middle;fontFamily=Helvetica;fontSize=11;fontColor=default;labelBackgroundColor=default;endArrow=block;endFill=1;" edge="1" parent="1" source="3ikKp4cBxxbYY34oaQvM-8" target="3ikKp4cBxxbYY34oaQvM-20">
          <mxGeometry relative="1" as="geometry" />
        </mxCell>
        <mxCell id="3ikKp4cBxxbYY34oaQvM-8" value="&lt;span style=&quot;font-size: 13px;&quot;&gt;Consultar&lt;/span&gt;&lt;div&gt;&lt;span style=&quot;font-size: 13px;&quot;&gt;horarios&lt;/span&gt;&lt;/div&gt;" style="ellipse;whiteSpace=wrap;html=1;fontFamily=Helvetica;fontSize=11;fontColor=default;labelBackgroundColor=default;" vertex="1" parent="1">
          <mxGeometry x="570" y="80" width="100" height="70" as="geometry" />
        </mxCell>
        <mxCell id="3ikKp4cBxxbYY34oaQvM-28" style="edgeStyle=none;rounded=0;orthogonalLoop=1;jettySize=auto;html=1;exitX=0;exitY=0.5;exitDx=0;exitDy=0;entryX=1;entryY=0.5;entryDx=0;entryDy=0;dashed=1;strokeColor=default;align=center;verticalAlign=middle;fontFamily=Helvetica;fontSize=11;fontColor=default;labelBackgroundColor=default;endArrow=block;endFill=1;" edge="1" parent="1" source="3ikKp4cBxxbYY34oaQvM-9" target="v9rKTqqRx91zz462ox4N-23">
          <mxGeometry relative="1" as="geometry" />
        </mxCell>
        <mxCell id="3ikKp4cBxxbYY34oaQvM-9" value="&lt;span style=&quot;font-size: 13px;&quot;&gt;Solicitar revision&lt;/span&gt;&lt;div&gt;&lt;span style=&quot;font-size: 13px;&quot;&gt;de notas&lt;/span&gt;&lt;/div&gt;" style="ellipse;whiteSpace=wrap;html=1;fontFamily=Helvetica;fontSize=11;fontColor=default;labelBackgroundColor=default;" vertex="1" parent="1">
          <mxGeometry x="570" y="195" width="110" height="70" as="geometry" />
        </mxCell>
        <mxCell id="3ikKp4cBxxbYY34oaQvM-26" style="edgeStyle=none;rounded=0;orthogonalLoop=1;jettySize=auto;html=1;exitX=0;exitY=0.5;exitDx=0;exitDy=0;entryX=1;entryY=0.5;entryDx=0;entryDy=0;dashed=1;strokeColor=default;align=center;verticalAlign=middle;fontFamily=Helvetica;fontSize=11;fontColor=default;labelBackgroundColor=default;endArrow=block;endFill=1;" edge="1" parent="1" source="3ikKp4cBxxbYY34oaQvM-10" target="v9rKTqqRx91zz462ox4N-24">
          <mxGeometry relative="1" as="geometry" />
        </mxCell>
        <mxCell id="3ikKp4cBxxbYY34oaQvM-10" value="&lt;span style=&quot;font-size: 13px;&quot;&gt;Notificar&lt;/span&gt;&lt;div&gt;&lt;span style=&quot;font-size: 13px;&quot;&gt;calificaciones&lt;/span&gt;&lt;/div&gt;" style="ellipse;whiteSpace=wrap;html=1;fontFamily=Helvetica;fontSize=11;fontColor=default;labelBackgroundColor=default;" vertex="1" parent="1">
          <mxGeometry x="570" y="320" width="100" height="70" as="geometry" />
        </mxCell>
        <mxCell id="3ikKp4cBxxbYY34oaQvM-16" value="&lt;span style=&quot;font-size: 13px;&quot;&gt;Realizar&amp;nbsp;&lt;/span&gt;&lt;div&gt;&lt;span style=&quot;font-size: 13px;&quot;&gt;reparacion&lt;/span&gt;&lt;/div&gt;" style="ellipse;whiteSpace=wrap;html=1;fontFamily=Helvetica;fontSize=11;fontColor=default;labelBackgroundColor=default;" vertex="1" parent="1">
          <mxGeometry x="570" y="840" width="100" height="70" as="geometry" />
        </mxCell>
        <mxCell id="3ikKp4cBxxbYY34oaQvM-17" value="&lt;span style=&quot;font-size: 13px;&quot;&gt;Consultar&lt;/span&gt;&lt;div&gt;&lt;span style=&quot;font-size: 13px;&quot;&gt;disponibilidad de&lt;/span&gt;&lt;/div&gt;&lt;div&gt;&lt;span style=&quot;font-size: 13px;&quot;&gt;recursos&lt;/span&gt;&lt;/div&gt;" style="ellipse;whiteSpace=wrap;html=1;fontFamily=Helvetica;fontSize=11;fontColor=default;labelBackgroundColor=default;" vertex="1" parent="1">
          <mxGeometry x="575" y="690" width="135" height="70" as="geometry" />
        </mxCell>
        <mxCell id="3ikKp4cBxxbYY34oaQvM-20" value="&lt;span style=&quot;font-size: 13px;&quot;&gt;procesar&lt;/span&gt;&lt;div&gt;&lt;span style=&quot;font-size: 13px;&quot;&gt;pagos&lt;/span&gt;&lt;/div&gt;" style="ellipse;whiteSpace=wrap;html=1;fontFamily=Helvetica;fontSize=11;fontColor=default;labelBackgroundColor=default;" vertex="1" parent="1">
          <mxGeometry x="790" y="80" width="100" height="70" as="geometry" />
        </mxCell>
        <mxCell id="3ikKp4cBxxbYY34oaQvM-22" value="Sistema de pagos" style="shape=umlActor;verticalLabelPosition=bottom;verticalAlign=top;html=1;outlineConnect=0;fontFamily=Helvetica;fontSize=11;fontColor=default;labelBackgroundColor=default;" vertex="1" parent="1">
          <mxGeometry x="825" y="250" width="30" height="60" as="geometry" />
        </mxCell>
        <mxCell id="3ikKp4cBxxbYY34oaQvM-23" style="edgeStyle=none;rounded=0;orthogonalLoop=1;jettySize=auto;html=1;exitX=0.5;exitY=1;exitDx=0;exitDy=0;entryX=0.5;entryY=0;entryDx=0;entryDy=0;entryPerimeter=0;strokeColor=default;align=center;verticalAlign=middle;fontFamily=Helvetica;fontSize=11;fontColor=default;labelBackgroundColor=default;endArrow=none;endFill=0;" edge="1" parent="1" source="3ikKp4cBxxbYY34oaQvM-20" target="3ikKp4cBxxbYY34oaQvM-22">
          <mxGeometry relative="1" as="geometry" />
        </mxCell>
        <mxCell id="3ikKp4cBxxbYY34oaQvM-29" value="&amp;lt;&amp;lt;include&amp;gt;&amp;gt;" style="text;html=1;align=center;verticalAlign=middle;whiteSpace=wrap;rounded=0;fontFamily=Helvetica;fontSize=11;fontColor=default;labelBackgroundColor=default;" vertex="1" parent="1">
          <mxGeometry x="480" y="80" width="60" height="30" as="geometry" />
        </mxCell>
        <mxCell id="3ikKp4cBxxbYY34oaQvM-30" value="&amp;lt;&amp;lt;include&amp;gt;&amp;gt;" style="text;html=1;align=center;verticalAlign=middle;whiteSpace=wrap;rounded=0;fontFamily=Helvetica;fontSize=11;fontColor=default;labelBackgroundColor=default;" vertex="1" parent="1">
          <mxGeometry x="700" y="80" width="60" height="30" as="geometry" />
        </mxCell>
        <mxCell id="3ikKp4cBxxbYY34oaQvM-31" value="&amp;lt;&amp;lt;include&amp;gt;&amp;gt;" style="text;html=1;align=center;verticalAlign=middle;whiteSpace=wrap;rounded=0;fontFamily=Helvetica;fontSize=11;fontColor=default;labelBackgroundColor=default;" vertex="1" parent="1">
          <mxGeometry x="500" y="695" width="60" height="30" as="geometry" />
        </mxCell>
        <mxCell id="3ikKp4cBxxbYY34oaQvM-32" value="&amp;lt;&amp;lt;include&amp;gt;&amp;gt;" style="text;html=1;align=center;verticalAlign=middle;whiteSpace=wrap;rounded=0;fontFamily=Helvetica;fontSize=11;fontColor=default;labelBackgroundColor=default;" vertex="1" parent="1">
          <mxGeometry x="480" y="840" width="60" height="30" as="geometry" />
        </mxCell>
        <mxCell id="3ikKp4cBxxbYY34oaQvM-33" value="&amp;lt;&amp;lt;extend&amp;gt;&amp;gt;" style="text;html=1;align=center;verticalAlign=middle;whiteSpace=wrap;rounded=0;fontFamily=Helvetica;fontSize=11;fontColor=default;labelBackgroundColor=default;" vertex="1" parent="1">
          <mxGeometry x="480" y="200" width="60" height="30" as="geometry" />
        </mxCell>
        <mxCell id="3ikKp4cBxxbYY34oaQvM-36" value="&amp;lt;&amp;lt;extend&amp;gt;&amp;gt;" style="text;html=1;align=center;verticalAlign=middle;whiteSpace=wrap;rounded=0;fontFamily=Helvetica;fontSize=11;fontColor=default;labelBackgroundColor=default;" vertex="1" parent="1">
          <mxGeometry x="480" y="330" width="60" height="30" as="geometry" />
        </mxCell>
        <mxCell id="3ikKp4cBxxbYY34oaQvM-37" value="&amp;lt;&amp;lt;extend&amp;gt;&amp;gt;" style="text;html=1;align=center;verticalAlign=middle;whiteSpace=wrap;rounded=0;fontFamily=Helvetica;fontSize=11;fontColor=default;labelBackgroundColor=default;" vertex="1" parent="1">
          <mxGeometry x="480" y="440" width="60" height="30" as="geometry" />
        </mxCell>
      </root>
    </mxGraphModel>
  </diagram>
  <diagram id="AC36tecefOBxDxrHeHVu" name="PÃ¡gina-2">
    <mxGraphModel dx="1134" dy="649" grid="1" gridSize="10" guides="1" tooltips="1" connect="1" arrows="1" fold="1" page="1" pageScale="1" pageWidth="1920" pageHeight="1200" math="0" shadow="0">
      <root>
        <mxCell id="0" />
        <mxCell id="1" parent="0" />
        <mxCell id="Kti5d3Pbl-DMLfGp57O0-39" style="edgeStyle=none;rounded=0;orthogonalLoop=1;jettySize=auto;html=1;exitX=1;exitY=0.3333333333333333;exitDx=0;exitDy=0;exitPerimeter=0;entryX=0;entryY=0.5;entryDx=0;entryDy=0;strokeColor=default;align=center;verticalAlign=middle;fontFamily=Helvetica;fontSize=11;fontColor=default;labelBackgroundColor=default;endArrow=none;endFill=0;" edge="1" parent="1" source="Kti5d3Pbl-DMLfGp57O0-25" target="Kti5d3Pbl-DMLfGp57O0-32">
          <mxGeometry relative="1" as="geometry" />
        </mxCell>
        <mxCell id="Kti5d3Pbl-DMLfGp57O0-44" style="edgeStyle=none;rounded=0;orthogonalLoop=1;jettySize=auto;html=1;exitX=0.5;exitY=0.5;exitDx=0;exitDy=0;exitPerimeter=0;entryX=0;entryY=0.5;entryDx=0;entryDy=0;strokeColor=default;align=center;verticalAlign=middle;fontFamily=Helvetica;fontSize=11;fontColor=default;labelBackgroundColor=default;endArrow=none;endFill=0;" edge="1" parent="1" source="Kti5d3Pbl-DMLfGp57O0-25" target="Kti5d3Pbl-DMLfGp57O0-36">
          <mxGeometry relative="1" as="geometry" />
        </mxCell>
        <mxCell id="Kti5d3Pbl-DMLfGp57O0-46" style="edgeStyle=none;rounded=0;orthogonalLoop=1;jettySize=auto;html=1;exitX=1;exitY=0.3333333333333333;exitDx=0;exitDy=0;exitPerimeter=0;entryX=0;entryY=0.5;entryDx=0;entryDy=0;strokeColor=default;align=center;verticalAlign=middle;fontFamily=Helvetica;fontSize=11;fontColor=default;labelBackgroundColor=default;endArrow=none;endFill=0;" edge="1" parent="1" source="Kti5d3Pbl-DMLfGp57O0-25" target="Kti5d3Pbl-DMLfGp57O0-34">
          <mxGeometry relative="1" as="geometry" />
        </mxCell>
        <mxCell id="Kti5d3Pbl-DMLfGp57O0-25" value="Cliente" style="shape=umlActor;verticalLabelPosition=bottom;verticalAlign=top;html=1;outlineConnect=0;fontFamily=Helvetica;fontSize=11;fontColor=default;labelBackgroundColor=default;" vertex="1" parent="1">
          <mxGeometry x="120" y="120" width="30" height="60" as="geometry" />
        </mxCell>
        <mxCell id="Kti5d3Pbl-DMLfGp57O0-40" style="edgeStyle=none;rounded=0;orthogonalLoop=1;jettySize=auto;html=1;exitX=0.5;exitY=0.5;exitDx=0;exitDy=0;exitPerimeter=0;entryX=0;entryY=0.5;entryDx=0;entryDy=0;strokeColor=default;align=center;verticalAlign=middle;fontFamily=Helvetica;fontSize=11;fontColor=default;labelBackgroundColor=default;endArrow=none;endFill=0;" edge="1" parent="1" source="Kti5d3Pbl-DMLfGp57O0-26" target="Kti5d3Pbl-DMLfGp57O0-35">
          <mxGeometry relative="1" as="geometry" />
        </mxCell>
        <mxCell id="Kti5d3Pbl-DMLfGp57O0-45" style="edgeStyle=none;rounded=0;orthogonalLoop=1;jettySize=auto;html=1;exitX=1;exitY=0.3333333333333333;exitDx=0;exitDy=0;exitPerimeter=0;entryX=0;entryY=0.5;entryDx=0;entryDy=0;strokeColor=default;align=center;verticalAlign=middle;fontFamily=Helvetica;fontSize=11;fontColor=default;labelBackgroundColor=default;endArrow=none;endFill=0;" edge="1" parent="1" source="Kti5d3Pbl-DMLfGp57O0-26" target="Kti5d3Pbl-DMLfGp57O0-36">
          <mxGeometry relative="1" as="geometry" />
        </mxCell>
        <mxCell id="Kti5d3Pbl-DMLfGp57O0-47" style="edgeStyle=none;rounded=0;orthogonalLoop=1;jettySize=auto;html=1;exitX=1;exitY=0.3333333333333333;exitDx=0;exitDy=0;exitPerimeter=0;strokeColor=default;align=center;verticalAlign=middle;fontFamily=Helvetica;fontSize=11;fontColor=default;labelBackgroundColor=default;endArrow=none;endFill=0;" edge="1" parent="1" source="Kti5d3Pbl-DMLfGp57O0-26">
          <mxGeometry relative="1" as="geometry">
            <mxPoint x="300" y="160" as="targetPoint" />
          </mxGeometry>
        </mxCell>
        <mxCell id="Kti5d3Pbl-DMLfGp57O0-26" value="Departamento&lt;div&gt;comercial&lt;/div&gt;" style="shape=umlActor;verticalLabelPosition=bottom;verticalAlign=top;html=1;outlineConnect=0;fontFamily=Helvetica;fontSize=11;fontColor=default;labelBackgroundColor=default;" vertex="1" parent="1">
          <mxGeometry x="120" y="240" width="30" height="60" as="geometry" />
        </mxCell>
        <mxCell id="Kti5d3Pbl-DMLfGp57O0-42" style="edgeStyle=none;rounded=0;orthogonalLoop=1;jettySize=auto;html=1;exitX=0.5;exitY=0.5;exitDx=0;exitDy=0;exitPerimeter=0;entryX=0;entryY=0.5;entryDx=0;entryDy=0;strokeColor=default;align=center;verticalAlign=middle;fontFamily=Helvetica;fontSize=11;fontColor=default;labelBackgroundColor=default;endArrow=none;endFill=0;" edge="1" parent="1" source="Kti5d3Pbl-DMLfGp57O0-27" target="Kti5d3Pbl-DMLfGp57O0-38">
          <mxGeometry relative="1" as="geometry" />
        </mxCell>
        <mxCell id="Kti5d3Pbl-DMLfGp57O0-27" value="Sistema de&lt;div&gt;inventario&lt;/div&gt;" style="shape=umlActor;verticalLabelPosition=bottom;verticalAlign=top;html=1;outlineConnect=0;fontFamily=Helvetica;fontSize=11;fontColor=default;labelBackgroundColor=default;" vertex="1" parent="1">
          <mxGeometry x="120" y="360" width="30" height="60" as="geometry" />
        </mxCell>
        <mxCell id="Kti5d3Pbl-DMLfGp57O0-43" style="edgeStyle=none;rounded=0;orthogonalLoop=1;jettySize=auto;html=1;exitX=0.5;exitY=0.5;exitDx=0;exitDy=0;exitPerimeter=0;entryX=0;entryY=0.5;entryDx=0;entryDy=0;strokeColor=default;align=center;verticalAlign=middle;fontFamily=Helvetica;fontSize=11;fontColor=default;labelBackgroundColor=default;endArrow=none;endFill=0;" edge="1" parent="1" source="Kti5d3Pbl-DMLfGp57O0-29" target="Kti5d3Pbl-DMLfGp57O0-37">
          <mxGeometry relative="1" as="geometry" />
        </mxCell>
        <mxCell id="Kti5d3Pbl-DMLfGp57O0-48" style="edgeStyle=none;rounded=0;orthogonalLoop=1;jettySize=auto;html=1;exitX=1;exitY=0.3333333333333333;exitDx=0;exitDy=0;exitPerimeter=0;entryX=0;entryY=0.5;entryDx=0;entryDy=0;strokeColor=default;align=center;verticalAlign=middle;fontFamily=Helvetica;fontSize=11;fontColor=default;labelBackgroundColor=default;endArrow=none;endFill=0;" edge="1" parent="1" source="Kti5d3Pbl-DMLfGp57O0-29" target="Kti5d3Pbl-DMLfGp57O0-33">
          <mxGeometry relative="1" as="geometry" />
        </mxCell>
        <mxCell id="Kti5d3Pbl-DMLfGp57O0-29" value="Sistema de&lt;div&gt;envios&lt;/div&gt;" style="shape=umlActor;verticalLabelPosition=bottom;verticalAlign=top;html=1;outlineConnect=0;fontFamily=Helvetica;fontSize=11;fontColor=default;labelBackgroundColor=default;" vertex="1" parent="1">
          <mxGeometry x="120" y="480" width="30" height="60" as="geometry" />
        </mxCell>
        <mxCell id="Kti5d3Pbl-DMLfGp57O0-32" value="&lt;font style=&quot;font-size: 14px;&quot;&gt;Realizar&lt;/font&gt;&lt;div style=&quot;font-size: 14px;&quot;&gt;&lt;font style=&quot;font-size: 14px;&quot;&gt;Pedido&lt;/font&gt;&lt;/div&gt;" style="ellipse;whiteSpace=wrap;html=1;fontFamily=Helvetica;fontSize=11;fontColor=default;labelBackgroundColor=default;" vertex="1" parent="1">
          <mxGeometry x="300" y="40" width="110" height="60" as="geometry" />
        </mxCell>
        <mxCell id="Kti5d3Pbl-DMLfGp57O0-33" value="&lt;span style=&quot;font-size: 14px;&quot;&gt;Preparar&lt;/span&gt;&lt;br&gt;&lt;div style=&quot;font-size: 14px;&quot;&gt;&lt;font style=&quot;font-size: 14px;&quot;&gt;Pedido&lt;/font&gt;&lt;/div&gt;" style="ellipse;whiteSpace=wrap;html=1;fontFamily=Helvetica;fontSize=11;fontColor=default;labelBackgroundColor=default;" vertex="1" parent="1">
          <mxGeometry x="290" y="500" width="110" height="60" as="geometry" />
        </mxCell>
        <mxCell id="Kti5d3Pbl-DMLfGp57O0-34" value="&lt;div style=&quot;font-size: 14px;&quot;&gt;&lt;font style=&quot;font-size: 14px;&quot;&gt;Devolver&lt;/font&gt;&lt;/div&gt;&lt;div style=&quot;font-size: 14px;&quot;&gt;&lt;font style=&quot;font-size: 14px;&quot;&gt;Pedido&lt;/font&gt;&lt;/div&gt;" style="ellipse;whiteSpace=wrap;html=1;fontFamily=Helvetica;fontSize=11;fontColor=default;labelBackgroundColor=default;" vertex="1" parent="1">
          <mxGeometry x="300" y="130" width="110" height="60" as="geometry" />
        </mxCell>
        <mxCell id="Kti5d3Pbl-DMLfGp57O0-35" value="&lt;font style=&quot;font-size: 14px;&quot;&gt;Recibir&lt;/font&gt;&lt;div style=&quot;font-size: 14px;&quot;&gt;&lt;font style=&quot;font-size: 14px;&quot;&gt;Pedido&lt;/font&gt;&lt;/div&gt;" style="ellipse;whiteSpace=wrap;html=1;fontFamily=Helvetica;fontSize=11;fontColor=default;labelBackgroundColor=default;" vertex="1" parent="1">
          <mxGeometry x="290" y="310" width="110" height="60" as="geometry" />
        </mxCell>
        <mxCell id="Kti5d3Pbl-DMLfGp57O0-36" value="&lt;span style=&quot;font-size: 14px;&quot;&gt;Cancelar&lt;/span&gt;&lt;div&gt;&lt;span style=&quot;font-size: 14px;&quot;&gt;pedido&lt;/span&gt;&lt;/div&gt;" style="ellipse;whiteSpace=wrap;html=1;fontFamily=Helvetica;fontSize=11;fontColor=default;labelBackgroundColor=default;" vertex="1" parent="1">
          <mxGeometry x="300" y="220" width="110" height="60" as="geometry" />
        </mxCell>
        <mxCell id="Kti5d3Pbl-DMLfGp57O0-37" value="&lt;span style=&quot;font-size: 14px;&quot;&gt;enviar&lt;/span&gt;&lt;br&gt;&lt;div style=&quot;font-size: 14px;&quot;&gt;&lt;font style=&quot;font-size: 14px;&quot;&gt;Pedido&lt;/font&gt;&lt;/div&gt;" style="ellipse;whiteSpace=wrap;html=1;fontFamily=Helvetica;fontSize=11;fontColor=default;labelBackgroundColor=default;" vertex="1" parent="1">
          <mxGeometry x="290" y="590" width="110" height="60" as="geometry" />
        </mxCell>
        <mxCell id="Kti5d3Pbl-DMLfGp57O0-38" value="&lt;font style=&quot;font-size: 14px;&quot;&gt;procesar&lt;/font&gt;&lt;div style=&quot;font-size: 14px;&quot;&gt;&lt;font style=&quot;font-size: 14px;&quot;&gt;Pedido&lt;/font&gt;&lt;/div&gt;" style="ellipse;whiteSpace=wrap;html=1;fontFamily=Helvetica;fontSize=11;fontColor=default;labelBackgroundColor=default;" vertex="1" parent="1">
          <mxGeometry x="290" y="410" width="110" height="60" as="geometry" />
        </mxCell>
      </root>
    </mxGraphModel>
  </diagram>
  <diagram id="5H_QPu-fLFYngMMxGTsi" name="PÃ¡gina-3">
    <mxGraphModel dx="794" dy="454" grid="1" gridSize="10" guides="1" tooltips="1" connect="1" arrows="1" fold="1" page="1" pageScale="1" pageWidth="1920" pageHeight="1200" math="0" shadow="0">
      <root>
        <mxCell id="0" />
        <mxCell id="1" parent="0" />
        <mxCell id="TNdMvlFbcPi7Jc26VEf0-13" style="edgeStyle=none;rounded=0;orthogonalLoop=1;jettySize=auto;html=1;exitX=1;exitY=0.3333333333333333;exitDx=0;exitDy=0;exitPerimeter=0;entryX=0;entryY=0.5;entryDx=0;entryDy=0;strokeColor=default;align=center;verticalAlign=middle;fontFamily=Helvetica;fontSize=11;fontColor=default;labelBackgroundColor=default;endArrow=none;endFill=0;" edge="1" parent="1" source="TNdMvlFbcPi7Jc26VEf0-1" target="TNdMvlFbcPi7Jc26VEf0-8">
          <mxGeometry relative="1" as="geometry" />
        </mxCell>
        <mxCell id="TNdMvlFbcPi7Jc26VEf0-14" style="edgeStyle=none;rounded=0;orthogonalLoop=1;jettySize=auto;html=1;exitX=0.5;exitY=0.5;exitDx=0;exitDy=0;exitPerimeter=0;entryX=0;entryY=0.5;entryDx=0;entryDy=0;strokeColor=default;align=center;verticalAlign=middle;fontFamily=Helvetica;fontSize=11;fontColor=default;labelBackgroundColor=default;endArrow=none;endFill=0;" edge="1" parent="1" source="TNdMvlFbcPi7Jc26VEf0-1" target="TNdMvlFbcPi7Jc26VEf0-10">
          <mxGeometry relative="1" as="geometry" />
        </mxCell>
        <mxCell id="TNdMvlFbcPi7Jc26VEf0-15" style="edgeStyle=none;rounded=0;orthogonalLoop=1;jettySize=auto;html=1;exitX=0.5;exitY=0.5;exitDx=0;exitDy=0;exitPerimeter=0;entryX=0;entryY=0.5;entryDx=0;entryDy=0;strokeColor=default;align=center;verticalAlign=middle;fontFamily=Helvetica;fontSize=11;fontColor=default;labelBackgroundColor=default;endArrow=none;endFill=0;" edge="1" parent="1" source="TNdMvlFbcPi7Jc26VEf0-1" target="TNdMvlFbcPi7Jc26VEf0-12">
          <mxGeometry relative="1" as="geometry" />
        </mxCell>
        <mxCell id="TNdMvlFbcPi7Jc26VEf0-1" value="Cliente" style="shape=umlActor;verticalLabelPosition=bottom;verticalAlign=top;html=1;outlineConnect=0;fontFamily=Helvetica;fontSize=11;fontColor=default;labelBackgroundColor=default;" vertex="1" parent="1">
          <mxGeometry x="120" y="120" width="30" height="60" as="geometry" />
        </mxCell>
        <mxCell id="TNdMvlFbcPi7Jc26VEf0-16" style="edgeStyle=none;rounded=0;orthogonalLoop=1;jettySize=auto;html=1;exitX=1;exitY=0.3333333333333333;exitDx=0;exitDy=0;exitPerimeter=0;entryX=0;entryY=0.5;entryDx=0;entryDy=0;strokeColor=default;align=center;verticalAlign=middle;fontFamily=Helvetica;fontSize=11;fontColor=default;labelBackgroundColor=default;endArrow=none;endFill=0;" edge="1" parent="1" source="TNdMvlFbcPi7Jc26VEf0-2" target="TNdMvlFbcPi7Jc26VEf0-7">
          <mxGeometry relative="1" as="geometry" />
        </mxCell>
        <mxCell id="TNdMvlFbcPi7Jc26VEf0-17" style="edgeStyle=none;rounded=0;orthogonalLoop=1;jettySize=auto;html=1;exitX=0.5;exitY=0.5;exitDx=0;exitDy=0;exitPerimeter=0;entryX=0;entryY=0.5;entryDx=0;entryDy=0;strokeColor=default;align=center;verticalAlign=middle;fontFamily=Helvetica;fontSize=11;fontColor=default;labelBackgroundColor=default;endArrow=none;endFill=0;" edge="1" parent="1" source="TNdMvlFbcPi7Jc26VEf0-2" target="TNdMvlFbcPi7Jc26VEf0-9">
          <mxGeometry relative="1" as="geometry" />
        </mxCell>
        <mxCell id="TNdMvlFbcPi7Jc26VEf0-2" value="Cajero&lt;div&gt;automatico&lt;/div&gt;" style="shape=umlActor;verticalLabelPosition=bottom;verticalAlign=top;html=1;outlineConnect=0;fontFamily=Helvetica;fontSize=11;fontColor=default;labelBackgroundColor=default;" vertex="1" parent="1">
          <mxGeometry x="121" y="320" width="30" height="60" as="geometry" />
        </mxCell>
        <mxCell id="TNdMvlFbcPi7Jc26VEf0-18" style="edgeStyle=none;rounded=0;orthogonalLoop=1;jettySize=auto;html=1;exitX=1;exitY=0.3333333333333333;exitDx=0;exitDy=0;exitPerimeter=0;entryX=0;entryY=0.5;entryDx=0;entryDy=0;strokeColor=default;align=center;verticalAlign=middle;fontFamily=Helvetica;fontSize=11;fontColor=default;labelBackgroundColor=default;endArrow=none;endFill=0;" edge="1" parent="1" source="TNdMvlFbcPi7Jc26VEf0-3" target="TNdMvlFbcPi7Jc26VEf0-11">
          <mxGeometry relative="1" as="geometry" />
        </mxCell>
        <mxCell id="TNdMvlFbcPi7Jc26VEf0-3" value="Empleado&lt;div&gt;de agencia&lt;/div&gt;" style="shape=umlActor;verticalLabelPosition=bottom;verticalAlign=top;html=1;outlineConnect=0;fontFamily=Helvetica;fontSize=11;fontColor=default;labelBackgroundColor=default;" vertex="1" parent="1">
          <mxGeometry x="120" y="520" width="30" height="60" as="geometry" />
        </mxCell>
        <mxCell id="TNdMvlFbcPi7Jc26VEf0-7" value="&lt;span style=&quot;font-size: 14px;&quot;&gt;Entregar&amp;nbsp;&lt;/span&gt;&lt;div&gt;&lt;span style=&quot;font-size: 14px;&quot;&gt;dinero&lt;/span&gt;&lt;/div&gt;" style="ellipse;whiteSpace=wrap;html=1;fontFamily=Helvetica;fontSize=11;fontColor=default;labelBackgroundColor=default;" vertex="1" parent="1">
          <mxGeometry x="330" y="315" width="120" height="70" as="geometry" />
        </mxCell>
        <mxCell id="TNdMvlFbcPi7Jc26VEf0-8" value="&lt;font style=&quot;font-size: 14px;&quot;&gt;Insertar&lt;/font&gt;&lt;div style=&quot;font-size: 14px;&quot;&gt;&lt;font style=&quot;font-size: 14px;&quot;&gt;tarjeta&lt;/font&gt;&lt;/div&gt;" style="ellipse;whiteSpace=wrap;html=1;fontFamily=Helvetica;fontSize=11;fontColor=default;labelBackgroundColor=default;" vertex="1" parent="1">
          <mxGeometry x="330" y="20" width="120" height="70" as="geometry" />
        </mxCell>
        <mxCell id="TNdMvlFbcPi7Jc26VEf0-9" value="&lt;span style=&quot;font-size: 14px;&quot;&gt;Impimir recibo&lt;/span&gt;" style="ellipse;whiteSpace=wrap;html=1;fontFamily=Helvetica;fontSize=11;fontColor=default;labelBackgroundColor=default;" vertex="1" parent="1">
          <mxGeometry x="330" y="420" width="120" height="70" as="geometry" />
        </mxCell>
        <mxCell id="TNdMvlFbcPi7Jc26VEf0-10" value="&lt;font style=&quot;font-size: 14px;&quot;&gt;Insertar&lt;/font&gt;&lt;div style=&quot;font-size: 14px;&quot;&gt;PIN/ContraseÃ±a&lt;/div&gt;" style="ellipse;whiteSpace=wrap;html=1;fontFamily=Helvetica;fontSize=11;fontColor=default;labelBackgroundColor=default;" vertex="1" parent="1">
          <mxGeometry x="330" y="120" width="120" height="70" as="geometry" />
        </mxCell>
        <mxCell id="TNdMvlFbcPi7Jc26VEf0-11" value="&lt;font style=&quot;font-size: 14px;&quot;&gt;Insertar&lt;/font&gt;&lt;div style=&quot;font-size: 14px;&quot;&gt;&lt;font style=&quot;font-size: 14px;&quot;&gt;tarjeta&lt;/font&gt;&lt;/div&gt;" style="ellipse;whiteSpace=wrap;html=1;fontFamily=Helvetica;fontSize=11;fontColor=default;labelBackgroundColor=default;" vertex="1" parent="1">
          <mxGeometry x="330" y="530" width="120" height="70" as="geometry" />
        </mxCell>
        <mxCell id="TNdMvlFbcPi7Jc26VEf0-12" value="&lt;span style=&quot;font-size: 14px;&quot;&gt;Retirar dinero&lt;/span&gt;" style="ellipse;whiteSpace=wrap;html=1;fontFamily=Helvetica;fontSize=11;fontColor=default;labelBackgroundColor=default;" vertex="1" parent="1">
          <mxGeometry x="330" y="220" width="120" height="70" as="geometry" />
        </mxCell>
      </root>
    </mxGraphModel>
  </diagram>
  <diagram id="IHK59eaAqpF35Ap2OiQl" name="PÃ¡gina-4">
    <mxGraphModel dx="794" dy="454" grid="1" gridSize="10" guides="1" tooltips="1" connect="1" arrows="1" fold="1" page="1" pageScale="1" pageWidth="1920" pageHeight="1200" math="0" shadow="0">
      <root>
        <mxCell id="0" />
        <mxCell id="1" parent="0" />
        <mxCell id="NCzdIZ-CymSV26rTvZnt-8" style="edgeStyle=none;rounded=0;orthogonalLoop=1;jettySize=auto;html=1;exitX=1;exitY=0.3333333333333333;exitDx=0;exitDy=0;exitPerimeter=0;entryX=0;entryY=0.5;entryDx=0;entryDy=0;strokeColor=default;align=center;verticalAlign=middle;fontFamily=Helvetica;fontSize=11;fontColor=default;labelBackgroundColor=default;endArrow=none;endFill=0;" edge="1" parent="1" source="NCzdIZ-CymSV26rTvZnt-1" target="NCzdIZ-CymSV26rTvZnt-7">
          <mxGeometry relative="1" as="geometry" />
        </mxCell>
        <mxCell id="NCzdIZ-CymSV26rTvZnt-9" style="edgeStyle=none;rounded=0;orthogonalLoop=1;jettySize=auto;html=1;exitX=0.5;exitY=0.5;exitDx=0;exitDy=0;exitPerimeter=0;entryX=0;entryY=0.5;entryDx=0;entryDy=0;strokeColor=default;align=center;verticalAlign=middle;fontFamily=Helvetica;fontSize=11;fontColor=default;labelBackgroundColor=default;endArrow=none;endFill=0;" edge="1" parent="1" source="NCzdIZ-CymSV26rTvZnt-1" target="NCzdIZ-CymSV26rTvZnt-6">
          <mxGeometry relative="1" as="geometry" />
        </mxCell>
        <mxCell id="NCzdIZ-CymSV26rTvZnt-1" value="Maestro" style="shape=umlActor;verticalLabelPosition=bottom;verticalAlign=top;html=1;outlineConnect=0;fontFamily=Helvetica;fontSize=11;fontColor=default;labelBackgroundColor=default;" vertex="1" parent="1">
          <mxGeometry x="120" y="350" width="30" height="60" as="geometry" />
        </mxCell>
        <mxCell id="NCzdIZ-CymSV26rTvZnt-10" style="edgeStyle=none;rounded=0;orthogonalLoop=1;jettySize=auto;html=1;exitX=1;exitY=0.3333333333333333;exitDx=0;exitDy=0;exitPerimeter=0;entryX=0;entryY=0.5;entryDx=0;entryDy=0;strokeColor=default;align=center;verticalAlign=middle;fontFamily=Helvetica;fontSize=11;fontColor=default;labelBackgroundColor=default;endArrow=none;endFill=0;" edge="1" parent="1" source="NCzdIZ-CymSV26rTvZnt-2" target="NCzdIZ-CymSV26rTvZnt-3">
          <mxGeometry relative="1" as="geometry" />
        </mxCell>
        <mxCell id="NCzdIZ-CymSV26rTvZnt-11" value="" style="edgeStyle=none;rounded=0;orthogonalLoop=1;jettySize=auto;html=1;strokeColor=default;align=center;verticalAlign=middle;fontFamily=Helvetica;fontSize=11;fontColor=default;labelBackgroundColor=default;endArrow=none;endFill=0;exitX=0.5;exitY=0.5;exitDx=0;exitDy=0;exitPerimeter=0;" edge="1" parent="1" source="NCzdIZ-CymSV26rTvZnt-2" target="NCzdIZ-CymSV26rTvZnt-4">
          <mxGeometry relative="1" as="geometry" />
        </mxCell>
        <mxCell id="NCzdIZ-CymSV26rTvZnt-12" style="edgeStyle=none;rounded=0;orthogonalLoop=1;jettySize=auto;html=1;exitX=0.5;exitY=0.5;exitDx=0;exitDy=0;exitPerimeter=0;entryX=0;entryY=0.5;entryDx=0;entryDy=0;strokeColor=default;align=center;verticalAlign=middle;fontFamily=Helvetica;fontSize=11;fontColor=default;labelBackgroundColor=default;endArrow=none;endFill=0;" edge="1" parent="1" source="NCzdIZ-CymSV26rTvZnt-2" target="NCzdIZ-CymSV26rTvZnt-5">
          <mxGeometry relative="1" as="geometry" />
        </mxCell>
        <mxCell id="NCzdIZ-CymSV26rTvZnt-2" value="Jugador" style="shape=umlActor;verticalLabelPosition=bottom;verticalAlign=top;html=1;outlineConnect=0;fontFamily=Helvetica;fontSize=11;fontColor=default;labelBackgroundColor=default;" vertex="1" parent="1">
          <mxGeometry x="120" y="120" width="30" height="60" as="geometry" />
        </mxCell>
        <mxCell id="NCzdIZ-CymSV26rTvZnt-3" value="&lt;font style=&quot;font-size: 14px;&quot;&gt;Hacer&lt;/font&gt;&lt;div style=&quot;font-size: 14px;&quot;&gt;movimiento&lt;/div&gt;" style="ellipse;whiteSpace=wrap;html=1;fontFamily=Helvetica;fontSize=11;fontColor=default;labelBackgroundColor=default;" vertex="1" parent="1">
          <mxGeometry x="240" y="40" width="120" height="60" as="geometry" />
        </mxCell>
        <mxCell id="NCzdIZ-CymSV26rTvZnt-4" value="&lt;span style=&quot;font-size: 14px;&quot;&gt;Gestionar&amp;nbsp;&lt;/span&gt;&lt;div&gt;&lt;span style=&quot;font-size: 14px;&quot;&gt;tiempo de&lt;/span&gt;&lt;/div&gt;&lt;div&gt;&lt;span style=&quot;font-size: 14px;&quot;&gt;juego&lt;/span&gt;&lt;/div&gt;" style="ellipse;whiteSpace=wrap;html=1;fontFamily=Helvetica;fontSize=11;fontColor=default;labelBackgroundColor=default;" vertex="1" parent="1">
          <mxGeometry x="240" y="130" width="120" height="60" as="geometry" />
        </mxCell>
        <mxCell id="NCzdIZ-CymSV26rTvZnt-5" value="&lt;span style=&quot;font-size: 14px;&quot;&gt;volver a jugar&lt;/span&gt;" style="ellipse;whiteSpace=wrap;html=1;fontFamily=Helvetica;fontSize=11;fontColor=default;labelBackgroundColor=default;" vertex="1" parent="1">
          <mxGeometry x="240" y="220" width="120" height="60" as="geometry" />
        </mxCell>
        <mxCell id="NCzdIZ-CymSV26rTvZnt-6" value="&lt;span style=&quot;font-size: 14px;&quot;&gt;EnseÃ±ar&amp;nbsp;&lt;/span&gt;&lt;div&gt;&lt;span style=&quot;font-size: 14px;&quot;&gt;nuevas aperturas&lt;/span&gt;&lt;/div&gt;" style="ellipse;whiteSpace=wrap;html=1;fontFamily=Helvetica;fontSize=11;fontColor=default;labelBackgroundColor=default;" vertex="1" parent="1">
          <mxGeometry x="240" y="400" width="130" height="70" as="geometry" />
        </mxCell>
        <mxCell id="NCzdIZ-CymSV26rTvZnt-7" value="&lt;span style=&quot;font-size: 14px;&quot;&gt;Evaluar&lt;/span&gt;&lt;br&gt;&lt;div style=&quot;font-size: 14px;&quot;&gt;&lt;font style=&quot;font-size: 14px;&quot;&gt;jugada&lt;/font&gt;&lt;/div&gt;" style="ellipse;whiteSpace=wrap;html=1;fontFamily=Helvetica;fontSize=11;fontColor=default;labelBackgroundColor=default;" vertex="1" parent="1">
          <mxGeometry x="240" y="310" width="120" height="60" as="geometry" />
        </mxCell>
      </root>
    </mxGraphModel>
  </diagram>
</mxfile>
